<svg width="2320" height="720" viewBox="0 0 2320 720" fill="none" xmlns="http://www.w3.org/2000/svg">
<rect width="2320" height="720" fill="#FF40FF"/>
<path d="M1161.56 405L1195.12 314.812H1203.44V328.312H1200.56L1173.38 405H1161.56ZM1176.94 379.188L1180.69 369.625H1220.69L1224.44 379.188H1176.94ZM1227.94 405L1200.81 328.312V314.812H1206.25L1239.75 405H1227.94ZM1248.44 405V340H1259.31V349.25H1259.56C1261.31 346.208 1263.85 343.708 1267.19 341.75C1270.52 339.75 1274.65 338.75 1279.56 338.75C1286.69 338.75 1292.21 340.917 1296.12 345.25C1300.08 349.542 1302.06 355.396 1302.06 362.812V405H1291.19V364.75C1291.19 359.458 1289.94 355.417 1287.44 352.625C1284.98 349.792 1281.25 348.375 1276.25 348.375C1272.83 348.375 1269.85 349.146 1267.31 350.688C1264.77 352.188 1262.79 354.312 1261.38 357.062C1260 359.812 1259.31 363.042 1259.31 366.75V405H1248.44ZM1322.19 426.875C1321.15 426.875 1320.08 426.812 1319 426.688C1317.96 426.604 1317.08 426.5 1316.38 426.375V417.5C1316.83 417.583 1317.35 417.667 1317.94 417.75C1318.56 417.833 1319.21 417.875 1319.88 417.875C1323.33 417.875 1326.08 417.271 1328.12 416.062C1330.21 414.854 1331.9 412.417 1333.19 408.75L1334.5 405.062L1310.38 340H1322L1340.75 396.625L1338.44 394.125H1341.69L1339.38 396.625L1358.19 340H1369.62L1344.25 409.062C1342.71 413.188 1340.98 416.562 1339.06 419.188C1337.15 421.812 1334.83 423.75 1332.12 425C1329.42 426.25 1326.1 426.875 1322.19 426.875ZM1391.06 405L1372.88 340H1383.69L1396.69 392.875H1396.94L1411.62 340H1422.12L1436.88 392.875H1437.12L1450.12 340H1460.88L1442.75 405H1431.69L1417 354.688H1416.75L1402.12 405H1391.06ZM1470.38 405V314.812H1481.25V350.375H1481.5C1483.25 346.708 1485.85 343.854 1489.31 341.812C1492.77 339.771 1496.92 338.75 1501.75 338.75C1506.38 338.75 1510.42 339.875 1513.88 342.125C1517.38 344.333 1520.1 347.417 1522.06 351.375C1524.02 355.333 1525 359.938 1525 365.188V405H1514.12V367.062C1514.12 361.188 1512.71 356.604 1509.88 353.312C1507.04 350.021 1503.08 348.375 1498 348.375C1494.67 348.375 1491.73 349.167 1489.19 350.75C1486.69 352.333 1484.73 354.521 1483.31 357.312C1481.94 360.104 1481.25 363.354 1481.25 367.062V405H1470.38ZM1565.56 406.25C1559.35 406.25 1554 404.875 1549.5 402.125C1545.04 399.375 1541.6 395.5 1539.19 390.5C1536.81 385.458 1535.62 379.542 1535.62 372.75V372.688C1535.62 365.979 1536.83 360.083 1539.25 355C1541.67 349.875 1545.06 345.896 1549.44 343.062C1553.81 340.188 1558.96 338.75 1564.88 338.75C1570.79 338.75 1575.88 340.125 1580.12 342.875C1584.42 345.583 1587.71 349.396 1590 354.312C1592.29 359.229 1593.44 364.938 1593.44 371.438V375.438H1541.06V366.938H1588.06L1582.56 374.812V370.625C1582.56 365.583 1581.79 361.417 1580.25 358.125C1578.75 354.833 1576.67 352.396 1574 350.812C1571.33 349.188 1568.27 348.375 1564.81 348.375C1561.35 348.375 1558.25 349.229 1555.5 350.938C1552.75 352.604 1550.58 355.104 1549 358.438C1547.42 361.729 1546.62 365.792 1546.62 370.625V374.812C1546.62 379.396 1547.4 383.312 1548.94 386.562C1550.52 389.812 1552.75 392.312 1555.62 394.062C1558.5 395.771 1561.9 396.625 1565.81 396.625C1568.56 396.625 1571.02 396.208 1573.19 395.375C1575.35 394.542 1577.17 393.396 1578.62 391.938C1580.08 390.479 1581.12 388.812 1581.75 386.938L1581.94 386.375H1592.62L1592.5 387C1591.96 389.667 1590.92 392.167 1589.38 394.5C1587.88 396.833 1585.94 398.896 1583.56 400.688C1581.19 402.438 1578.48 403.812 1575.44 404.812C1572.4 405.771 1569.1 406.25 1565.56 406.25ZM1604.44 405V340H1615.31V351H1615.56C1616.65 347.25 1618.52 344.271 1621.19 342.062C1623.85 339.854 1627.02 338.75 1630.69 338.75C1631.65 338.75 1632.5 338.812 1633.25 338.938C1634.04 339.021 1634.65 339.104 1635.06 339.188V349.75C1634.65 349.583 1633.9 349.438 1632.81 349.312C1631.77 349.188 1630.58 349.125 1629.25 349.125C1626.46 349.125 1624 349.75 1621.88 351C1619.79 352.25 1618.17 354.062 1617 356.438C1615.88 358.771 1615.31 361.583 1615.31 364.875V405H1604.44ZM1667.56 406.25C1661.35 406.25 1656 404.875 1651.5 402.125C1647.04 399.375 1643.6 395.5 1641.19 390.5C1638.81 385.458 1637.62 379.542 1637.62 372.75V372.688C1637.62 365.979 1638.83 360.083 1641.25 355C1643.67 349.875 1647.06 345.896 1651.44 343.062C1655.81 340.188 1660.96 338.75 1666.88 338.75C1672.79 338.75 1677.88 340.125 1682.12 342.875C1686.42 345.583 1689.71 349.396 1692 354.312C1694.29 359.229 1695.44 364.938 1695.44 371.438V375.438H1643.06V366.938H1690.06L1684.56 374.812V370.625C1684.56 365.583 1683.79 361.417 1682.25 358.125C1680.75 354.833 1678.67 352.396 1676 350.812C1673.33 349.188 1670.27 348.375 1666.81 348.375C1663.35 348.375 1660.25 349.229 1657.5 350.938C1654.75 352.604 1652.58 355.104 1651 358.438C1649.42 361.729 1648.62 365.792 1648.62 370.625V374.812C1648.62 379.396 1649.4 383.312 1650.94 386.562C1652.52 389.812 1654.75 392.312 1657.62 394.062C1660.5 395.771 1663.9 396.625 1667.81 396.625C1670.56 396.625 1673.02 396.208 1675.19 395.375C1677.35 394.542 1679.17 393.396 1680.62 391.938C1682.08 390.479 1683.12 388.812 1683.75 386.938L1683.94 386.375H1694.62L1694.5 387C1693.96 389.667 1692.92 392.167 1691.38 394.5C1689.88 396.833 1687.94 398.896 1685.56 400.688C1683.19 402.438 1680.48 403.812 1677.44 404.812C1674.4 405.771 1671.1 406.25 1667.56 406.25Z" fill="white" fill-opacity="0.6"/>
<path fill-rule="evenodd" clip-rule="evenodd" d="M812.095 362.486C812.131 361.215 812.415 360.001 812.415 358.729C812.415 289.06 757.064 232.612 688.75 232.612C620.436 232.612 565.085 289.06 565.085 358.729C565.085 360.001 565.369 361.215 565.405 362.486C541.275 371.088 523.864 394.262 523.864 421.787C523.864 456.601 551.539 484.846 585.696 484.846V484.888H791.804V484.846C825.941 484.846 853.636 456.622 853.636 421.787C853.636 394.241 836.205 371.088 812.095 362.486Z" fill="white" fill-opacity="0.6"/>
</svg>
