<svg width="1920" height="720" viewBox="0 0 1920 720" fill="none" xmlns="http://www.w3.org/2000/svg">
<rect width="1920" height="720" fill="#FF40FF"/>
<path d="M961.562 405L995.125 314.812H1003.44V328.312H1000.56L973.375 405H961.562ZM976.938 379.188L980.688 369.625H1020.69L1024.44 379.188H976.938ZM1027.94 405L1000.81 328.312V314.812H1006.25L1039.75 405H1027.94ZM1048.44 405V340H1059.31V349.25H1059.56C1061.31 346.208 1063.85 343.708 1067.19 341.75C1070.52 339.75 1074.65 338.75 1079.56 338.75C1086.69 338.75 1092.21 340.917 1096.12 345.25C1100.08 349.542 1102.06 355.396 1102.06 362.812V405H1091.19V364.75C1091.19 359.458 1089.94 355.417 1087.44 352.625C1084.98 349.792 1081.25 348.375 1076.25 348.375C1072.83 348.375 1069.85 349.146 1067.31 350.688C1064.77 352.188 1062.79 354.312 1061.38 357.062C1060 359.812 1059.31 363.042 1059.31 366.75V405H1048.44ZM1122.19 426.875C1121.15 426.875 1120.08 426.812 1119 426.688C1117.96 426.604 1117.08 426.5 1116.38 426.375V417.5C1116.83 417.583 1117.35 417.667 1117.94 417.75C1118.56 417.833 1119.21 417.875 1119.88 417.875C1123.33 417.875 1126.08 417.271 1128.12 416.062C1130.21 414.854 1131.9 412.417 1133.19 408.75L1134.5 405.062L1110.38 340H1122L1140.75 396.625L1138.44 394.125H1141.69L1139.38 396.625L1158.19 340H1169.62L1144.25 409.062C1142.71 413.188 1140.98 416.562 1139.06 419.188C1137.15 421.812 1134.83 423.75 1132.12 425C1129.42 426.25 1126.1 426.875 1122.19 426.875ZM1191.06 405L1172.88 340H1183.69L1196.69 392.875H1196.94L1211.62 340H1222.12L1236.88 392.875H1237.12L1250.12 340H1260.88L1242.75 405H1231.69L1217 354.688H1216.75L1202.12 405H1191.06ZM1270.38 405V314.812H1281.25V350.375H1281.5C1283.25 346.708 1285.85 343.854 1289.31 341.812C1292.77 339.771 1296.92 338.75 1301.75 338.75C1306.38 338.75 1310.42 339.875 1313.88 342.125C1317.38 344.333 1320.1 347.417 1322.06 351.375C1324.02 355.333 1325 359.938 1325 365.188V405H1314.12V367.062C1314.12 361.188 1312.71 356.604 1309.88 353.312C1307.04 350.021 1303.08 348.375 1298 348.375C1294.67 348.375 1291.73 349.167 1289.19 350.75C1286.69 352.333 1284.73 354.521 1283.31 357.312C1281.94 360.104 1281.25 363.354 1281.25 367.062V405H1270.38ZM1365.56 406.25C1359.35 406.25 1354 404.875 1349.5 402.125C1345.04 399.375 1341.6 395.5 1339.19 390.5C1336.81 385.458 1335.62 379.542 1335.62 372.75V372.688C1335.62 365.979 1336.83 360.083 1339.25 355C1341.67 349.875 1345.06 345.896 1349.44 343.062C1353.81 340.188 1358.96 338.75 1364.88 338.75C1370.79 338.75 1375.88 340.125 1380.12 342.875C1384.42 345.583 1387.71 349.396 1390 354.312C1392.29 359.229 1393.44 364.938 1393.44 371.438V375.438H1341.06V366.938H1388.06L1382.56 374.812V370.625C1382.56 365.583 1381.79 361.417 1380.25 358.125C1378.75 354.833 1376.67 352.396 1374 350.812C1371.33 349.188 1368.27 348.375 1364.81 348.375C1361.35 348.375 1358.25 349.229 1355.5 350.938C1352.75 352.604 1350.58 355.104 1349 358.438C1347.42 361.729 1346.62 365.792 1346.62 370.625V374.812C1346.62 379.396 1347.4 383.312 1348.94 386.562C1350.52 389.812 1352.75 392.312 1355.62 394.062C1358.5 395.771 1361.9 396.625 1365.81 396.625C1368.56 396.625 1371.02 396.208 1373.19 395.375C1375.35 394.542 1377.17 393.396 1378.62 391.938C1380.08 390.479 1381.12 388.812 1381.75 386.938L1381.94 386.375H1392.62L1392.5 387C1391.96 389.667 1390.92 392.167 1389.38 394.5C1387.88 396.833 1385.94 398.896 1383.56 400.688C1381.19 402.438 1378.48 403.812 1375.44 404.812C1372.4 405.771 1369.1 406.25 1365.56 406.25ZM1404.44 405V340H1415.31V351H1415.56C1416.65 347.25 1418.52 344.271 1421.19 342.062C1423.85 339.854 1427.02 338.75 1430.69 338.75C1431.65 338.75 1432.5 338.812 1433.25 338.938C1434.04 339.021 1434.65 339.104 1435.06 339.188V349.75C1434.65 349.583 1433.9 349.438 1432.81 349.312C1431.77 349.188 1430.58 349.125 1429.25 349.125C1426.46 349.125 1424 349.75 1421.88 351C1419.79 352.25 1418.17 354.062 1417 356.438C1415.88 358.771 1415.31 361.583 1415.31 364.875V405H1404.44ZM1467.56 406.25C1461.35 406.25 1456 404.875 1451.5 402.125C1447.04 399.375 1443.6 395.5 1441.19 390.5C1438.81 385.458 1437.62 379.542 1437.62 372.75V372.688C1437.62 365.979 1438.83 360.083 1441.25 355C1443.67 349.875 1447.06 345.896 1451.44 343.062C1455.81 340.188 1460.96 338.75 1466.88 338.75C1472.79 338.75 1477.88 340.125 1482.12 342.875C1486.42 345.583 1489.71 349.396 1492 354.312C1494.29 359.229 1495.44 364.938 1495.44 371.438V375.438H1443.06V366.938H1490.06L1484.56 374.812V370.625C1484.56 365.583 1483.79 361.417 1482.25 358.125C1480.75 354.833 1478.67 352.396 1476 350.812C1473.33 349.188 1470.27 348.375 1466.81 348.375C1463.35 348.375 1460.25 349.229 1457.5 350.938C1454.75 352.604 1452.58 355.104 1451 358.438C1449.42 361.729 1448.62 365.792 1448.62 370.625V374.812C1448.62 379.396 1449.4 383.312 1450.94 386.562C1452.52 389.812 1454.75 392.312 1457.62 394.062C1460.5 395.771 1463.9 396.625 1467.81 396.625C1470.56 396.625 1473.02 396.208 1475.19 395.375C1477.35 394.542 1479.17 393.396 1480.62 391.938C1482.08 390.479 1483.12 388.812 1483.75 386.938L1483.94 386.375H1494.62L1494.5 387C1493.96 389.667 1492.92 392.167 1491.38 394.5C1489.88 396.833 1487.94 398.896 1485.56 400.688C1483.19 402.438 1480.48 403.812 1477.44 404.812C1474.4 405.771 1471.1 406.25 1467.56 406.25Z" fill="white" fill-opacity="0.6"/>
<path fill-rule="evenodd" clip-rule="evenodd" d="M682.209 362.149C682.242 360.992 682.5 359.888 682.5 358.731C682.5 295.352 632.147 244 570 244C507.853 244 457.5 295.352 457.5 358.731C457.5 359.888 457.758 360.992 457.791 362.149C435.839 369.975 420 391.056 420 416.096C420 447.767 445.177 473.462 476.25 473.462V473.5H663.75V473.462C694.805 473.462 720 447.786 720 416.096C720 391.037 704.142 369.975 682.209 362.149Z" fill="white" fill-opacity="0.6"/>
</svg>
